<svg width="101" height="27" viewBox="0 0 101 27" fill="none" xmlns="http://www.w3.org/2000/svg">
<path d="M1.672 26C1.432 26 1.228 25.916 1.06 25.748C0.892 25.58 0.808 25.376 0.808 25.136V1.664C0.808 1.4 0.892 1.196 1.06 1.052C1.228 0.883999 1.432 0.799998 1.672 0.799998H5.02C5.284 0.799998 5.488 0.883999 5.632 1.052C5.8 1.196 5.884 1.4 5.884 1.664V21.716H17.296C17.56 21.716 17.776 21.8 17.944 21.968C18.112 22.136 18.196 22.352 18.196 22.616V25.136C18.196 25.4 18.112 25.616 17.944 25.784C17.776 25.928 17.56 26 17.296 26H1.672ZM33.9384 26.36C30.6744 26.36 28.1304 25.532 26.3064 23.876C24.4824 22.22 23.5224 19.76 23.4264 16.496C23.4024 15.8 23.3904 14.78 23.3904 13.436C23.3904 12.068 23.4024 11.036 23.4264 10.34C23.5224 7.148 24.5064 4.7 26.3784 2.996C28.2504 1.292 30.7704 0.439999 33.9384 0.439999C37.1064 0.439999 39.6264 1.292 41.4984 2.996C43.3944 4.7 44.3904 7.148 44.4864 10.34C44.5344 11.732 44.5584 12.764 44.5584 13.436C44.5584 14.084 44.5344 15.104 44.4864 16.496C44.3664 19.76 43.3944 22.22 41.5704 23.876C39.7464 25.532 37.2024 26.36 33.9384 26.36ZM33.9384 22.22C35.5464 22.22 36.8304 21.74 37.7904 20.78C38.7504 19.796 39.2664 18.308 39.3384 16.316C39.3864 14.876 39.4104 13.904 39.4104 13.4C39.4104 12.848 39.3864 11.876 39.3384 10.484C39.2664 8.492 38.7504 7.016 37.7904 6.056C36.8304 5.072 35.5464 4.58 33.9384 4.58C32.3544 4.58 31.0824 5.072 30.1224 6.056C29.1624 7.016 28.6464 8.492 28.5744 10.484C28.5504 11.18 28.5384 12.152 28.5384 13.4C28.5384 14.624 28.5504 15.596 28.5744 16.316C28.6464 18.308 29.1504 19.796 30.0864 20.78C31.0464 21.74 32.3304 22.22 33.9384 22.22ZM61.9577 26.36C58.6697 26.36 56.1017 25.508 54.2537 23.804C52.4297 22.1 51.4577 19.724 51.3377 16.676C51.3137 15.98 51.3017 14.864 51.3017 13.328C51.3017 11.792 51.3137 10.676 51.3377 9.98C51.4577 7.004 52.4417 4.676 54.2897 2.996C56.1617 1.292 58.7177 0.439999 61.9577 0.439999C64.1657 0.439999 66.0617 0.811999 67.6457 1.556C69.2297 2.3 70.4297 3.236 71.2457 4.364C72.0617 5.468 72.4937 6.56 72.5417 7.64V7.712C72.5417 7.904 72.4697 8.072 72.3257 8.216C72.1817 8.336 72.0017 8.396 71.7857 8.396H68.0777C67.8377 8.396 67.6577 8.36 67.5377 8.288C67.4177 8.192 67.3097 8.036 67.2137 7.82C66.8777 6.932 66.2897 6.176 65.4497 5.552C64.6097 4.904 63.4457 4.58 61.9577 4.58C60.2777 4.58 58.9577 5.036 57.9977 5.948C57.0617 6.86 56.5577 8.264 56.4857 10.16C56.4617 10.856 56.4497 11.912 56.4497 13.328C56.4497 14.72 56.4617 15.776 56.4857 16.496C56.6297 20.312 58.4777 22.22 62.0297 22.22C63.7337 22.22 65.1017 21.764 66.1337 20.852C67.1657 19.916 67.6817 18.536 67.6817 16.712V15.596H63.2897C63.0257 15.596 62.8097 15.512 62.6417 15.344C62.4977 15.176 62.4257 14.96 62.4257 14.696V12.788C62.4257 12.524 62.4977 12.308 62.6417 12.14C62.8097 11.972 63.0257 11.888 63.2897 11.888H71.8937C72.1577 11.888 72.3617 11.972 72.5057 12.14C72.6737 12.308 72.7577 12.524 72.7577 12.788V16.568C72.7577 18.56 72.3137 20.3 71.4257 21.788C70.5617 23.252 69.3137 24.38 67.6817 25.172C66.0497 25.964 64.1417 26.36 61.9577 26.36ZM89.9367 26.36C86.6727 26.36 84.1287 25.532 82.3047 23.876C80.4807 22.22 79.5207 19.76 79.4247 16.496C79.4007 15.8 79.3887 14.78 79.3887 13.436C79.3887 12.068 79.4007 11.036 79.4247 10.34C79.5207 7.148 80.5047 4.7 82.3767 2.996C84.2487 1.292 86.7687 0.439999 89.9367 0.439999C93.1047 0.439999 95.6247 1.292 97.4967 2.996C99.3927 4.7 100.389 7.148 100.485 10.34C100.533 11.732 100.557 12.764 100.557 13.436C100.557 14.084 100.533 15.104 100.485 16.496C100.365 19.76 99.3927 22.22 97.5687 23.876C95.7447 25.532 93.2007 26.36 89.9367 26.36ZM89.9367 22.22C91.5447 22.22 92.8287 21.74 93.7887 20.78C94.7487 19.796 95.2647 18.308 95.3367 16.316C95.3847 14.876 95.4087 13.904 95.4087 13.4C95.4087 12.848 95.3847 11.876 95.3367 10.484C95.2647 8.492 94.7487 7.016 93.7887 6.056C92.8287 5.072 91.5447 4.58 89.9367 4.58C88.3527 4.58 87.0807 5.072 86.1207 6.056C85.1607 7.016 84.6447 8.492 84.5727 10.484C84.5487 11.18 84.5367 12.152 84.5367 13.4C84.5367 14.624 84.5487 15.596 84.5727 16.316C84.6447 18.308 85.1487 19.796 86.0847 20.78C87.0447 21.74 88.3287 22.22 89.9367 22.22Z" fill="#161616"/>
</svg>
