<svg width="103" height="58" viewBox="0 0 103 58" fill="none" xmlns="http://www.w3.org/2000/svg">
<path d="M75.499 1.38078C73.7115 -0.406716 70.824 -0.406716 69.0365 1.38078L43.1865 27.2308L49.649 33.6933L75.499 7.79745C77.2406 6.05578 77.2406 3.12245 75.499 1.38078ZM94.9323 1.33495L49.649 46.6183L33.699 30.7141C31.9115 28.9266 29.024 28.9266 27.2365 30.7141C25.449 32.5016 25.449 35.3891 27.2365 37.1766L46.3948 56.335C48.1823 58.1225 51.0698 58.1225 52.8573 56.335L101.395 7.84328C103.182 6.05578 103.182 3.16828 101.395 1.38078H101.349C99.6073 -0.452549 96.7198 -0.45255 94.9323 1.33495ZM1.34063 37.2225L20.499 56.3808C22.2865 58.1683 25.174 58.1683 26.9615 56.3808L30.1698 53.1725L7.80313 30.7141C6.01562 28.9266 3.12812 28.9266 1.34063 30.7141C-0.446875 32.5016 -0.446875 35.435 1.34063 37.2225Z" fill="#161616"/>
</svg>
