<svg width="20" height="15" viewBox="0 0 20 15" fill="none" xmlns="http://www.w3.org/2000/svg">
<path d="M16.8182 3.63636H14.5455V1.81818C14.5455 0.818182 13.7273 0 12.7273 0H1.81818C0.818182 0 0 0.818182 0 1.81818V10C0 11 0.818182 11.8182 1.81818 11.8182C1.81818 13.3273 3.03636 14.5455 4.54545 14.5455C6.05455 14.5455 7.27273 13.3273 7.27273 11.8182H12.7273C12.7273 13.3273 13.9455 14.5455 15.4545 14.5455C16.9636 14.5455 18.1818 13.3273 18.1818 11.8182H19.0909C19.5909 11.8182 20 11.4091 20 10.9091V7.88182C20 7.49091 19.8727 7.10909 19.6364 6.79091L17.5455 4C17.3727 3.77273 17.1 3.63636 16.8182 3.63636ZM4.54545 12.7273C4.04545 12.7273 3.63636 12.3182 3.63636 11.8182C3.63636 11.3182 4.04545 10.9091 4.54545 10.9091C5.04545 10.9091 5.45455 11.3182 5.45455 11.8182C5.45455 12.3182 5.04545 12.7273 4.54545 12.7273ZM16.8182 5L18.6 7.27273H14.5455V5H16.8182ZM15.4545 12.7273C14.9545 12.7273 14.5455 12.3182 14.5455 11.8182C14.5455 11.3182 14.9545 10.9091 15.4545 10.9091C15.9545 10.9091 16.3636 11.3182 16.3636 11.8182C16.3636 12.3182 15.9545 12.7273 15.4545 12.7273Z" fill="#535466"/>
</svg>
