<svg width="18" height="14" viewBox="0 0 18 14" fill="none" xmlns="http://www.w3.org/2000/svg">
<path d="M9 0.863632C4.90909 0.863632 1.41545 3.40818 0 7C1.41545 10.5918 4.90909 13.1364 9 13.1364C13.0909 13.1364 16.5845 10.5918 18 7C16.5845 3.40818 13.0909 0.863632 9 0.863632ZM9 11.0909C6.74182 11.0909 4.90909 9.25818 4.90909 7C4.90909 4.74181 6.74182 2.90909 9 2.90909C11.2582 2.90909 13.0909 4.74181 13.0909 7C13.0909 9.25818 11.2582 11.0909 9 11.0909ZM9 4.54545C7.64182 4.54545 6.54545 5.64181 6.54545 7C6.54545 8.35818 7.64182 9.45454 9 9.45454C10.3582 9.45454 11.4545 8.35818 11.4545 7C11.4545 5.64181 10.3582 4.54545 9 4.54545Z" fill="#161616"/>
</svg>
