<svg width="18" height="16" viewBox="0 0 18 16" fill="none" xmlns="http://www.w3.org/2000/svg">
<path d="M9 3.47545C11.2582 3.47545 13.0909 5.30818 13.0909 7.56636C13.0909 7.98363 13.0091 8.38454 12.8945 8.7609L15.3982 11.2645C16.5355 10.2582 17.4355 8.99817 18 7.55818C16.5845 3.97454 13.0909 1.42999 9 1.42999C7.96091 1.42999 6.96273 1.59363 6.02182 1.89636L7.79727 3.67181C8.18182 3.55727 8.58273 3.47545 9 3.47545ZM1.39909 0.742721C1.08 1.06181 1.08 1.57727 1.39909 1.89636L3.01091 3.50818C1.68545 4.56363 0.63 5.95454 0 7.56636C1.41545 11.1582 4.90909 13.7027 9 13.7027C10.2436 13.7027 11.43 13.4573 12.5264 13.0318L14.7518 15.2573C15.0709 15.5764 15.5864 15.5764 15.9055 15.2573C16.2245 14.9382 16.2245 14.4227 15.9055 14.1036L2.56091 0.742721C2.24182 0.42363 1.71818 0.42363 1.39909 0.742721ZM9 11.6573C6.74182 11.6573 4.90909 9.82454 4.90909 7.56636C4.90909 6.93636 5.05636 6.33908 5.31 5.81545L6.59455 7.09999C6.57 7.24727 6.54545 7.40272 6.54545 7.56636C6.54545 8.92454 7.64182 10.0209 9 10.0209C9.16364 10.0209 9.31091 9.99636 9.46636 9.96363L10.7509 11.2482C10.2191 11.51 9.63 11.6573 9 11.6573ZM11.43 7.29636C11.3073 6.1509 10.4073 5.25908 9.27 5.13636L11.43 7.29636Z" fill="#161616"/>
</svg>
