<svg width="17" height="22" viewBox="0 0 17 22" fill="none" xmlns="http://www.w3.org/2000/svg">
<path d="M8.5 10.9128C9.66875 10.9128 10.625 9.93066 10.625 8.73025C10.625 7.52984 9.66875 6.54769 8.5 6.54769C7.33125 6.54769 6.375 7.52984 6.375 8.73025C6.375 9.93066 7.33125 10.9128 8.5 10.9128ZM8.5 0C12.9625 0 17 3.51392 17 8.9485C17 12.4188 14.3969 16.5002 9.20125 21.2036C8.7975 21.5637 8.19187 21.5637 7.78813 21.2036C2.60312 16.5002 0 12.4188 0 8.9485C0 3.51392 4.0375 0 8.5 0Z" fill="#535466"/>
</svg>
