<svg width="9" height="10" viewBox="0 0 9 10" fill="none" xmlns="http://www.w3.org/2000/svg">
<path d="M8.35714 5.64286H5.14286V8.85714C5.14286 9.21071 4.85357 9.5 4.5 9.5C4.14643 9.5 3.85714 9.21071 3.85714 8.85714V5.64286H0.642857C0.289286 5.64286 0 5.35357 0 5C0 4.64643 0.289286 4.35714 0.642857 4.35714H3.85714V1.14286C3.85714 0.789286 4.14643 0.5 4.5 0.5C4.85357 0.5 5.14286 0.789286 5.14286 1.14286V4.35714H8.35714C8.71071 4.35714 9 4.64643 9 5C9 5.35357 8.71071 5.64286 8.35714 5.64286Z" fill="#161616"/>
</svg>
