<svg width="18" height="13" viewBox="0 0 18 13" fill="none" xmlns="http://www.w3.org/2000/svg">
<path d="M1 7.5049L14.17 7.5049L11.29 10.3849C10.9 10.7749 10.9 11.4049 11.29 11.7949C11.68 12.1849 12.31 12.1849 12.7 11.7949L17.29 7.2049C17.68 6.8149 17.68 6.1849 17.29 5.7949L12.7 1.2049C12.31 0.814903 11.68 0.814903 11.29 1.2049C10.9 1.5949 10.9 2.2249 11.29 2.6149L14.17 5.5049L1 5.5049C0.450005 5.5049 3.8147e-06 5.9549 3.8147e-06 6.5049C3.8147e-06 7.0549 0.450005 7.5049 1 7.5049Z" fill="white"/>
</svg>
